<svg width="40" height="40" viewBox="0 0 40 40" fill="none" xmlns="http://www.w3.org/2000/svg">
<path d="M30 6.25H10C7.92893 6.25 6.25 7.92893 6.25 10V30C6.25 32.0711 7.92893 33.75 10 33.75H30C32.0711 33.75 33.75 32.0711 33.75 30V10C33.75 7.92893 32.0711 6.25 30 6.25Z" stroke="black" stroke-linecap="round" stroke-linejoin="round"/>
<path d="M14.375 15C15.4105 15 16.25 14.1605 16.25 13.125C16.25 12.0895 15.4105 11.25 14.375 11.25C13.3395 11.25 12.5 12.0895 12.5 13.125C12.5 14.1605 13.3395 15 14.375 15Z" fill="black"/>
<path d="M14.375 21.875C15.4105 21.875 16.25 21.0355 16.25 20C16.25 18.9645 15.4105 18.125 14.375 18.125C13.3395 18.125 12.5 18.9645 12.5 20C12.5 21.0355 13.3395 21.875 14.375 21.875Z" fill="black"/>
<path d="M14.375 28.75C15.4105 28.75 16.25 27.9105 16.25 26.875C16.25 25.8395 15.4105 25 14.375 25C13.3395 25 12.5 25.8395 12.5 26.875C12.5 27.9105 13.3395 28.75 14.375 28.75Z" fill="black"/>
<path d="M25.625 15C26.6605 15 27.5 14.1605 27.5 13.125C27.5 12.0895 26.6605 11.25 25.625 11.25C24.5895 11.25 23.75 12.0895 23.75 13.125C23.75 14.1605 24.5895 15 25.625 15Z" fill="black"/>
<path d="M25.625 21.875C26.6605 21.875 27.5 21.0355 27.5 20C27.5 18.9645 26.6605 18.125 25.625 18.125C24.5895 18.125 23.75 18.9645 23.75 20C23.75 21.0355 24.5895 21.875 25.625 21.875Z" fill="black"/>
<path d="M25.625 28.75C26.6605 28.75 27.5 27.9105 27.5 26.875C27.5 25.8395 26.6605 25 25.625 25C24.5895 25 23.75 25.8395 23.75 26.875C23.75 27.9105 24.5895 28.75 25.625 28.75Z" fill="black"/>
</svg>
