<svg width="40" height="40" viewBox="0 0 40 40" fill="none" xmlns="http://www.w3.org/2000/svg">
<path d="M12.0862 31.5432L7.05447 35.7731C6.87226 35.9263 6.6501 36.0242 6.41412 36.0555C6.17814 36.0867 5.93814 36.0499 5.72236 35.9494C5.50658 35.8489 5.32398 35.6889 5.19603 35.4881C5.06809 35.2874 5.00012 35.0543 5.00012 34.8163V10.0001C5.00012 9.66854 5.13182 9.3506 5.36624 9.11618C5.60066 8.88176 5.9186 8.75006 6.25012 8.75006H33.7501C34.0816 8.75006 34.3996 8.88176 34.634 9.11618C34.8684 9.3506 35.0001 9.66854 35.0001 10.0001V30.0001C35.0001 30.3316 34.8684 30.6495 34.634 30.8839C34.3996 31.1184 34.0816 31.2501 33.7501 31.2501H12.8906C12.5963 31.2501 12.3115 31.3539 12.0862 31.5432Z" stroke="black" stroke-linecap="round" stroke-linejoin="round"/>
<path d="M12.4999 21.875C13.5354 21.875 14.3749 21.0355 14.3749 20C14.3749 18.9645 13.5354 18.125 12.4999 18.125C11.4643 18.125 10.6249 18.9645 10.6249 20C10.6249 21.0355 11.4643 21.875 12.4999 21.875Z" fill="black"/>
<path d="M20.0001 21.875C21.0357 21.875 21.8751 21.0355 21.8751 20C21.8751 18.9645 21.0357 18.125 20.0001 18.125C18.9646 18.125 18.1251 18.9645 18.1251 20C18.1251 21.0355 18.9646 21.875 20.0001 21.875Z" fill="black"/>
<path d="M27.5002 21.875C28.5358 21.875 29.3752 21.0355 29.3752 20C29.3752 18.9645 28.5358 18.125 27.5002 18.125C26.4647 18.125 25.6252 18.9645 25.6252 20C25.6252 21.0355 26.4647 21.875 27.5002 21.875Z" fill="black"/>
<path d="M12.4999 21.875C13.5354 21.875 14.3749 21.0355 14.3749 20C14.3749 18.9645 13.5354 18.125 12.4999 18.125C11.4643 18.125 10.6249 18.9645 10.6249 20C10.6249 21.0355 11.4643 21.875 12.4999 21.875Z" fill="black"/>
<path d="M20.0001 21.875C21.0357 21.875 21.8751 21.0355 21.8751 20C21.8751 18.9645 21.0357 18.125 20.0001 18.125C18.9646 18.125 18.1251 18.9645 18.1251 20C18.1251 21.0355 18.9646 21.875 20.0001 21.875Z" fill="black"/>
<path d="M27.5002 21.875C28.5358 21.875 29.3752 21.0355 29.3752 20C29.3752 18.9645 28.5358 18.125 27.5002 18.125C26.4647 18.125 25.6252 18.9645 25.6252 20C25.6252 21.0355 26.4647 21.875 27.5002 21.875Z" fill="black"/>
</svg>
