<svg width="40" height="40" viewBox="0 0 40 40" fill="none" xmlns="http://www.w3.org/2000/svg">
<path d="M19.999 27.5C26.9026 27.5 32.499 21.9036 32.499 15C32.499 8.09644 26.9026 2.5 19.999 2.5C13.0955 2.5 7.49902 8.09644 7.49902 15C7.49902 21.9036 13.0955 27.5 19.999 27.5Z" stroke="black" stroke-linecap="round" stroke-linejoin="round"/>
<path d="M19.999 22.5C24.1412 22.5 27.499 19.1421 27.499 15C27.499 10.8579 24.1412 7.5 19.999 7.5C15.8569 7.5 12.499 10.8579 12.499 15C12.499 19.1421 15.8569 22.5 19.999 22.5Z" stroke="black" stroke-linecap="round" stroke-linejoin="round"/>
<path d="M27.5 24.9992V37.5L19.9989 33.75L12.5 37.5V25.0003" stroke="black" stroke-linecap="round" stroke-linejoin="round"/>
</svg>
